#Comment line ignore any data following # character 
#Hierarchical Translation and Rotation (.htr) file 
[Header]	
#Header keywords are followed by a single value 
FileType HTR		#Single word string
DataType HTRS		#Translation followed by rotation and scale data
FileVersion 1		#integer
NumSegments 64		#integer
NumFrames 3		#integer
DataFrameRate 30		#integer, data frame rate in this file
EulerRotationOrder ZYX
CalibrationUnits mm
RotationUnits Degrees
GlobalAxisofGravity Y
BoneLengthAxis Y
ScaleFactor 1.00
[SegmentNames&Hierarchy]
#CHILD	PARENT
Pinger_Root GLOBAL
Pelvis Pinger_Root
L_Hip Pelvis
R_Hip Pelvis
Rear_Leg01 Pelvis
Spine1 Pelvis
L_Leg01 L_Hip
L_Leg02 L_Leg01
L_Leg03 L_Leg02
L_Foot L_Leg03
L_Toe1_01 L_Foot
L_Toe2_01 L_Foot
L_Toe3_01 L_Foot
planeAlignerLeft L_Foot
L_Toe1_02 L_Toe1_01
L_Toe1_03 L_Toe1_02
L_Toe2_02 L_Toe2_01
L_Toe2_03 L_Toe2_02
L_Toe3_02 L_Toe3_01
L_Toe3_03 L_Toe3_02
planeLockWeightLeft planeAlignerLeft
R_Leg01 R_Hip
R_Leg02 R_Leg01
R_Leg03 R_Leg02
R_Foot R_Leg03
planeAlignerRight R_Foot
R_Toe1_01 R_Foot
R_Toe2_01 R_Foot
R_Toe3_01 R_Foot
planeLockWeightRight planeAlignerRight
R_Toe1_02 R_Toe1_01
R_Toe1_03 R_Toe1_02
R_Toe2_02 R_Toe2_01
R_Toe2_03 R_Toe2_02
R_Toe3_02 R_Toe3_01
R_Toe3_03 R_Toe3_02
Rear_Leg02 Rear_Leg01
Rear_Leg03 Rear_Leg02
Rear_Leg04 Rear_Leg03
Rear_Foot Rear_Leg04
planeAlignerCenter Rear_Foot
Rear_Toe1_01 Rear_Foot
Rear_Toe2_01 Rear_Foot
Rear_Toe3_01 Rear_Foot
planeLockWeightCenter planeAlignerCenter
Rear_Toe1_02 Rear_Toe1_01
Rear_Toe1_03 Rear_Toe1_02
Rear_Toe2_02 Rear_Toe2_01
Rear_Toe2_03 Rear_Toe2_02
Rear_Toe3_02 Rear_Toe3_01
Rear_Toe3_03 Rear_Toe3_02
Back_Bone Spine1
Head Spine1
Motor_Bone Back_Bone
Ping_Mechanism Back_Bone
BN_LookIK Head
bottomMouth Head
L_Mouth01 Head
L_mouthFront Head
mouthGun Head
R_Mouth01 Head
R_mouthFront Head
TopMouth Head
weapon_bone Head
[BasePosition]
#SegmentName Tx, Ty, Tz, Rx, Ry, Rz, BoneLength
Pinger_Root 0.000000 0.000000 0.000000 -90.000000 0.000000 0.000000 10.000000 
Pelvis 0.000000 0.000000 0.000000 0.000000 0.000000 0.000000 10.000000 
L_Hip 0.000000 0.000000 0.000000 0.000000 0.000000 0.000000 10.000000 
R_Hip 0.000000 0.000000 0.000000 0.000000 0.000000 0.000000 10.000000 
Rear_Leg01 0.000000 0.000000 0.000000 0.000000 0.000000 0.000000 10.000000 
Spine1 0.000000 0.000000 0.000000 0.000000 0.000000 0.000000 10.000000 
L_Leg01 0.000000 0.000000 0.000000 0.000000 0.000000 0.000000 10.000000 
L_Leg02 0.000000 0.000000 0.000000 0.000000 0.000000 0.000000 10.000000 
L_Leg03 0.000000 0.000000 0.000000 0.000000 0.000000 0.000000 10.000000 
L_Foot 0.000000 0.000000 0.000000 0.000000 0.000000 0.000000 10.000000 
L_Toe1_01 0.000000 0.000000 0.000000 0.000000 0.000000 0.000000 10.000000 
L_Toe2_01 0.000000 0.000000 0.000000 0.000000 0.000000 0.000000 10.000000 
L_Toe3_01 0.000000 0.000000 0.000000 0.000000 0.000000 0.000000 10.000000 
planeAlignerLeft 0.000000 0.000000 0.000000 0.000000 0.000000 0.000000 10.000000 
L_Toe1_02 0.000000 0.000000 0.000000 0.000000 0.000000 0.000000 10.000000 
L_Toe1_03 0.000000 0.000000 0.000000 0.000000 0.000000 0.000000 10.000000 
L_Toe2_02 0.000000 0.000000 0.000000 0.000000 0.000000 0.000000 10.000000 
L_Toe2_03 0.000000 0.000000 0.000000 0.000000 0.000000 0.000000 10.000000 
L_Toe3_02 0.000000 0.000000 0.000000 0.000000 0.000000 0.000000 10.000000 
L_Toe3_03 0.000000 0.000000 0.000000 0.000000 0.000000 0.000000 10.000000 
planeLockWeightLeft 0.000000 0.000000 0.000000 0.000000 0.000000 0.000000 10.000000 
R_Leg01 0.000000 0.000000 0.000000 0.000000 0.000000 0.000000 10.000000 
R_Leg02 0.000000 0.000000 0.000000 0.000000 0.000000 0.000000 10.000000 
R_Leg03 0.000000 0.000000 0.000000 0.000000 0.000000 0.000000 10.000000 
R_Foot 0.000000 0.000000 0.000000 0.000000 0.000000 0.000000 10.000000 
planeAlignerRight 0.000000 0.000000 0.000000 0.000000 0.000000 0.000000 10.000000 
R_Toe1_01 0.000000 0.000000 0.000000 0.000000 0.000000 0.000000 10.000000 
R_Toe2_01 0.000000 0.000000 0.000000 0.000000 0.000000 0.000000 10.000000 
R_Toe3_01 0.000000 0.000000 0.000000 0.000000 0.000000 0.000000 10.000000 
planeLockWeightRight 0.000000 0.000000 0.000000 0.000000 0.000000 0.000000 10.000000 
R_Toe1_02 0.000000 0.000000 0.000000 0.000000 0.000000 0.000000 10.000000 
R_Toe1_03 0.000000 0.000000 0.000000 0.000000 0.000000 0.000000 10.000000 
R_Toe2_02 0.000000 0.000000 0.000000 0.000000 0.000000 0.000000 10.000000 
R_Toe2_03 0.000000 0.000000 0.000000 0.000000 0.000000 0.000000 10.000000 
R_Toe3_02 0.000000 0.000000 0.000000 0.000000 0.000000 0.000000 10.000000 
R_Toe3_03 0.000000 0.000000 0.000000 0.000000 0.000000 0.000000 10.000000 
Rear_Leg02 0.000000 0.000000 0.000000 0.000000 0.000000 0.000000 10.000000 
Rear_Leg03 0.000000 0.000000 0.000000 0.000000 0.000000 0.000000 10.000000 
Rear_Leg04 0.000000 0.000000 0.000000 0.000000 0.000000 0.000000 10.000000 
Rear_Foot 0.000000 0.000000 0.000000 0.000000 0.000000 0.000000 10.000000 
planeAlignerCenter 0.000000 0.000000 0.000000 0.000000 0.000000 0.000000 10.000000 
Rear_Toe1_01 0.000000 0.000000 0.000000 0.000000 0.000000 0.000000 10.000000 
Rear_Toe2_01 0.000000 0.000000 0.000000 0.000000 0.000000 0.000000 10.000000 
Rear_Toe3_01 0.000000 0.000000 0.000000 0.000000 0.000000 0.000000 10.000000 
planeLockWeightCenter 0.000000 0.000000 0.000000 0.000000 0.000000 0.000000 10.000000 
Rear_Toe1_02 0.000000 0.000000 0.000000 0.000000 0.000000 0.000000 10.000000 
Rear_Toe1_03 0.000000 0.000000 0.000000 0.000000 0.000000 0.000000 10.000000 
Rear_Toe2_02 0.000000 0.000000 0.000000 0.000000 0.000000 0.000000 10.000000 
Rear_Toe2_03 0.000000 0.000000 0.000000 0.000000 0.000000 0.000000 10.000000 
Rear_Toe3_02 0.000000 0.000000 0.000000 0.000000 0.000000 0.000000 10.000000 
Rear_Toe3_03 0.000000 0.000000 0.000000 0.000000 0.000000 0.000000 10.000000 
Back_Bone 0.000000 0.000000 0.000000 0.000000 0.000000 0.000000 10.000000 
Head 0.000000 0.000000 0.000000 0.000000 0.000000 0.000000 10.000000 
Motor_Bone 0.000000 0.000000 0.000000 0.000000 0.000000 0.000000 10.000000 
Ping_Mechanism 0.000000 0.000000 0.000000 0.000000 0.000000 0.000000 10.000000 
BN_LookIK 0.000000 0.000000 0.000000 0.000000 0.000000 0.000000 10.000000 
bottomMouth 0.000000 0.000000 0.000000 0.000000 0.000000 0.000000 10.000000 
L_Mouth01 0.000000 0.000000 0.000000 0.000000 0.000000 0.000000 10.000000 
L_mouthFront 0.000000 0.000000 0.000000 0.000000 0.000000 0.000000 10.000000 
mouthGun 0.000000 0.000000 0.000000 0.000000 0.000000 0.000000 10.000000 
R_Mouth01 0.000000 0.000000 0.000000 0.000000 0.000000 0.000000 10.000000 
R_mouthFront 0.000000 0.000000 0.000000 0.000000 0.000000 0.000000 10.000000 
TopMouth 0.000000 0.000000 0.000000 0.000000 0.000000 0.000000 10.000000 
weapon_bone 0.000000 0.000000 0.000000 0.000000 0.000000 0.000000 10.000000 
#Beginning of Data. Separated by tabs
#Fr	Tx	Ty	Tz	Rx	Ry	Rz	SF
[Pinger_Root]
105 0.000000 0.000000 0.000000 -0.000069 -0.000029 -44.999992 0.000000
106 0.000000 0.000000 0.000000 -0.000069 -0.000029 -44.999992 0.000000
107 0.000000 0.000000 0.000000 -0.000069 -0.000029 -44.999985 0.000000
[Pelvis]
105 -116.607521 838.826782 4416.064453 -100.344620 -85.815262 92.325462 4496.537598
106 -114.050232 841.384094 4415.618652 -100.028748 -85.277313 92.467690 4496.512207
107 -111.492935 843.941467 4415.172852 -99.925606 -85.187775 92.907928 4496.489746
[L_Hip]
105 5.766392 125.831482 872.656799 160.158691 -45.484905 122.312202 881.701050
106 5.766392 125.831482 872.656799 160.158691 -45.484894 122.312202 881.701050
107 5.766392 125.831482 872.656799 160.158691 -45.484913 122.312202 881.701050
[R_Hip]
105 5.765438 125.836372 -872.654907 38.087841 49.812687 125.703735 881.699829
106 5.765438 125.836372 -872.654907 38.087841 49.812687 125.703735 881.699829
107 5.765438 125.836372 -872.654907 38.087841 49.812687 125.703735 881.699829
[Rear_Leg01]
105 -192.298416 -925.602966 -0.001907 170.787567 12.334566 -164.463654 945.367432
106 -192.298416 -925.602966 -0.001907 171.183044 11.952753 -164.935226 945.367432
107 -192.298416 -925.602966 -0.001907 171.677689 11.597182 -164.877350 945.367432
[Spine1]
105 290.604584 5.007505 0.000477 7.265348 -0.859225 19.236805 290.647736
106 290.604584 5.007505 0.000477 7.264725 0.312623 19.386122 290.647736
107 290.604584 5.007505 0.000477 7.261914 1.106261 19.487562 290.647736
[L_Leg01]
105 761.932007 -0.002384 -0.069261 39.014839 -20.310017 -14.446142 761.932068
106 761.932007 -0.002384 -0.069261 38.847294 -21.085886 -13.578586 761.932068
107 761.932007 -0.002384 -0.069261 39.033707 -21.663420 -13.393918 761.932068
[L_Leg02]
105 1441.140503 -0.000954 -0.000715 3.889033 -0.190187 -140.702454 1441.140503
106 1441.140503 -0.000954 -0.000715 3.937198 -0.189347 -141.143326 1441.140503
107 1441.140503 -0.000954 -0.000715 3.937181 -0.189707 -141.132828 1441.140503
[L_Leg03]
105 1686.963989 -0.000715 -0.000954 -0.035045 0.014268 119.424995 1686.963989
106 1686.963989 -0.000715 -0.000954 -0.035538 0.015136 119.467377 1686.963989
107 1686.963989 -0.000715 -0.000954 -0.036031 0.016003 119.509750 1686.963989
[L_Foot]
105 3041.570068 -30.715107 11.297464 -21.232697 24.206350 55.733829 3041.746094
106 3041.570068 -30.715107 11.297464 -21.203106 24.172409 55.674469 3041.746094
107 3041.570068 -30.715107 11.297464 -21.173483 24.138494 55.615116 3041.746094
[L_Toe1_01]
105 -188.216690 -224.732346 -21.137953 89.330788 -2.396121 -161.427643 293.899567
106 -188.216690 -224.732346 -21.137953 89.330788 -2.396121 -161.427643 293.899567
107 -188.216690 -224.732346 -21.137953 89.330788 -2.396121 -161.427643 293.899567
[L_Toe2_01]
105 200.746536 -219.926590 148.838394 -78.791496 -10.652695 -43.374847 332.896027
106 200.746536 -219.926590 148.838394 -78.791496 -10.652695 -43.374847 332.896027
107 200.746536 -219.926590 148.838394 -78.791496 -10.652695 -43.374847 332.896027
[L_Toe3_01]
105 188.832520 -219.859131 -191.078659 -109.186691 26.104874 -48.222931 347.140900
106 188.832520 -219.859131 -191.078659 -109.186691 26.104874 -48.222931 347.140900
107 188.832520 -219.859131 -191.078659 -109.186691 26.104874 -48.222931 347.140900
[planeAlignerLeft]
105 0.812531 -811.448792 -0.314951 0.000000 -90.000000 -90.001900 811.449280
106 0.812531 -811.448792 -0.314951 0.000000 -90.000000 -90.001900 811.449280
107 0.812531 -811.448792 -0.314951 0.000000 -90.000000 -90.001900 811.449280
[L_Toe1_02]
105 413.761139 0.000477 0.000000 0.000203 -25.410625 -0.000182 413.761139
106 413.761139 0.000477 0.000000 0.000203 -25.410625 -0.000182 413.761139
107 413.761139 0.000477 0.000000 0.000203 -25.410625 -0.000182 413.761139
[L_Toe1_03]
105 464.317322 0.000358 -0.000089 0.004933 62.473137 0.004933 464.317322
106 464.317322 0.000358 -0.000089 0.004933 62.473137 0.004933 464.317322
107 464.317322 0.000358 -0.000089 0.004933 62.473137 0.004933 464.317322
[L_Toe2_02]
105 342.235809 -0.000477 0.000238 -0.000101 -70.104240 0.000129 342.235809
106 342.235809 -0.000477 0.000238 -0.000101 -70.104240 0.000129 342.235809
107 342.235809 -0.000477 0.000238 -0.000101 -70.104240 0.000129 342.235809
[L_Toe2_03]
105 420.210846 -0.000715 0.000000 0.016997 82.081551 0.016997 420.210846
106 420.210846 -0.000715 0.000000 0.016997 82.081528 0.016997 420.210846
107 420.210846 -0.000715 0.000000 0.016997 82.081528 0.016997 420.210846
[L_Toe3_02]
105 329.270111 0.000954 0.000000 0.001178 -80.668365 0.001178 329.270111
106 329.270111 0.000954 0.000000 0.001178 -80.668365 0.001178 329.270111
107 329.270111 0.000954 0.000000 0.001178 -80.668365 0.001178 329.270111
[L_Toe3_03]
105 439.137451 -0.001907 0.000954 -179.996323 77.872620 -179.992813 439.137451
106 439.137451 -0.001907 0.000954 -179.996323 77.872643 -179.992813 439.137451
107 439.137451 -0.001907 0.000954 -179.996323 77.872643 -179.992813 439.137451
[planeLockWeightLeft]
105 -0.000954 0.000238 -0.000305 -0.011826 -0.004376 0.005620 0.001029
106 -0.000954 0.000238 -0.000305 -0.011826 -0.004376 0.005620 0.001029
107 -0.000954 0.000238 -0.000305 -0.011826 -0.004376 0.005620 0.001029
[R_Leg01]
105 761.455627 -0.001907 -0.000358 113.521614 -20.037199 40.138245 761.455688
106 761.455627 -0.001907 -0.000358 114.161171 -20.369829 39.592293 761.455688
107 761.455627 -0.001907 -0.000358 114.664688 -20.171520 39.332367 761.455688
[R_Leg02]
105 1441.140625 0.000000 -0.000238 -1.451291 -0.250593 -121.950790 1441.140625
106 1441.140625 0.000000 -0.000238 -1.470087 -0.259692 -122.496559 1441.140625
107 1441.140625 0.000000 -0.000238 -1.488796 -0.268969 -123.042320 1441.140625
[R_Leg03]
105 1686.963989 0.000954 0.001431 0.079981 -0.042101 132.193436 1686.963989
106 1686.963989 0.000954 0.001431 0.080604 -0.043691 132.312363 1686.963989
107 1686.963989 0.000954 0.001431 0.081223 -0.045283 132.431274 1686.963989
[R_Foot]
105 3041.560059 -30.531288 -11.204481 13.961398 -23.114187 41.406475 3041.734131
106 3041.560059 -30.531288 -11.204481 13.993463 -23.106977 41.659405 3041.734131
107 3041.560059 -30.531288 -11.204481 14.008063 -23.138111 42.016014 3041.734131
[planeAlignerRight]
105 -0.635147 -812.270569 -0.364304 0.000000 -89.960434 -90.005180 812.270874
106 -0.635147 -812.270569 -0.364304 0.000000 -89.960434 -90.005180 812.270874
107 -0.635147 -812.270569 -0.364304 0.000000 -89.960434 -90.005180 812.270874
[R_Toe1_01]
105 -188.383347 -224.864899 21.052242 90.478722 3.231926 -161.378860 294.101532
106 -188.383347 -224.864899 21.052242 90.478714 3.231925 -161.378845 294.101532
107 -188.383347 -224.864899 21.052242 90.478722 3.231926 -161.378860 294.101532
[R_Toe2_01]
105 200.637817 -220.002121 -148.787384 -105.368958 18.813931 -49.808266 332.857574
106 200.637817 -220.002121 -148.787384 -105.368958 18.813929 -49.808262 332.857574
107 200.637817 -220.002121 -148.787384 -105.368958 18.813929 -49.808262 332.857574
[R_Toe3_01]
105 188.606735 -220.092957 191.126343 -76.041084 -6.322367 -46.892487 347.192566
106 188.606735 -220.092957 191.126343 -76.041084 -6.322367 -46.892487 347.192566
107 188.606735 -220.092957 191.126343 -76.041084 -6.322367 -46.892487 347.192566
[planeLockWeightRight]
105 -0.000477 0.000000 0.000000 -0.011823 -0.004379 -0.000027 0.000477
106 -0.000477 0.000000 0.000000 -0.011823 -0.004379 -0.000027 0.000477
107 -0.000477 0.000000 0.000000 -0.011823 -0.004379 -0.000027 0.000477
[R_Toe1_02]
105 413.762085 0.000477 -0.000119 0.001401 -23.743965 0.001401 413.762085
106 413.762085 0.000477 -0.000119 0.001401 -23.743965 0.001401 413.762085
107 413.762085 0.000477 -0.000119 0.001401 -23.743965 0.001401 413.762085
[R_Toe1_03]
105 464.317810 0.000000 0.001088 0.008919 74.877419 0.008919 464.317810
106 464.317810 0.000000 0.001088 0.008919 74.877419 0.008919 464.317810
107 464.317810 0.000000 0.001088 0.008919 74.877388 0.008919 464.317810
[R_Toe2_02]
105 342.234741 -0.000954 0.000238 0.001188 -72.305122 0.001188 342.234741
106 342.234741 -0.000954 0.000238 0.001188 -72.305069 0.001188 342.234741
107 342.234741 -0.000954 0.000238 0.001188 -72.305008 0.001188 342.234741
[R_Toe2_03]
105 420.210846 0.000715 -0.000268 0.028196 85.228821 0.028196 420.210846
106 420.210846 0.000715 -0.000268 0.028196 85.228783 0.028196 420.210846
107 420.210846 0.000715 -0.000268 0.028195 85.228699 0.028195 420.210846
[R_Toe3_02]
105 329.270355 -0.000477 -0.000954 0.001177 -80.843628 0.001177 329.270355
106 329.270355 -0.000477 -0.000954 0.001177 -80.843628 0.001177 329.270355
107 329.270355 -0.000477 -0.000954 0.001177 -80.843628 0.001177 329.270355
[R_Toe3_03]
105 439.137939 0.000238 0.001431 -179.996658 77.078865 -179.993134 439.137939
106 439.137939 0.000238 0.001431 -179.996658 77.078918 -179.993134 439.137939
107 439.137939 0.000238 0.001431 -179.996658 77.078964 -179.993134 439.137939
[Rear_Leg02]
105 1162.777710 -0.029802 0.005960 0.069276 0.064419 -130.944351 1162.777710
106 1162.777710 -0.029802 0.005960 0.069356 0.064334 -130.802994 1162.777710
107 1162.777710 -0.029802 0.005960 0.070249 0.063929 -130.813873 1162.777710
[Rear_Leg03]
105 607.192505 -0.013351 -0.073195 0.010543 -0.004999 67.090698 607.192505
106 607.192505 -0.013351 -0.073195 0.010544 -0.004998 67.080811 607.192505
107 607.192505 -0.013351 -0.073195 0.010544 -0.004997 67.070923 607.192505
[Rear_Leg04]
105 995.874512 -0.020504 -0.011921 -0.043833 -0.017338 63.901535 995.874573
106 995.874512 -0.020504 -0.011921 -0.043823 -0.017363 63.837429 995.874573
107 995.874512 -0.020504 -0.011921 -0.043814 -0.017387 63.773319 995.874573
[Rear_Foot]
105 3096.176270 -0.067472 -0.041425 -0.262026 80.628349 -170.867661 3096.176270
106 3096.176270 -0.067472 -0.041425 -0.263404 80.757645 -170.861984 3096.176270
107 3096.176270 -0.067472 -0.041425 -0.264730 80.886887 -170.856232 3096.176270
[planeAlignerCenter]
105 0.350077 0.966311 -838.790894 0.000009 0.000003 -179.999985 838.791565
106 0.350077 0.966311 -838.790894 0.000009 0.000003 -179.999985 838.791565
107 0.350077 0.966311 -838.790894 0.000009 0.000003 -179.999985 838.791565
[Rear_Toe1_01]
105 0.653352 83.966492 -371.173737 0.294581 41.922390 90.412514 380.553192
106 0.653352 83.966492 -371.173737 0.294625 41.922352 90.412537 380.553192
107 0.653352 83.966492 -371.173737 0.294671 41.922325 90.412582 380.553192
[Rear_Toe2_01]
105 178.200760 -294.826019 -362.060547 -2.182623 34.541901 -64.361099 499.765686
106 178.200760 -294.826019 -362.060547 -2.182593 34.541859 -64.361076 499.765686
107 178.200760 -294.826019 -362.060547 -2.182563 34.541817 -64.361061 499.765686
[Rear_Toe3_01]
105 -153.359680 -308.780914 -362.060852 3.870838 33.514248 -112.318695 499.952881
106 -153.359680 -308.780914 -362.060852 3.870838 33.514248 -112.318695 499.952881
107 -153.359680 -308.780914 -362.060852 3.870838 33.514248 -112.318695 499.952881
[planeLockWeightCenter]
105 -0.000062 0.000238 0.000000 -0.011814 -0.004373 -0.000015 0.000246
106 -0.000062 0.000238 0.000000 -0.011814 -0.004373 -0.000015 0.000246
107 -0.000062 0.000238 0.000000 -0.011814 -0.004373 -0.000015 0.000246
[Rear_Toe1_02]
105 379.707825 0.194073 0.000477 -0.000242 -31.675659 0.006934 379.707855
106 379.707825 0.194073 0.000477 -0.000242 -31.675709 0.006934 379.707855
107 379.707825 0.194073 0.000477 -0.000242 -31.675756 0.006934 379.707855
[Rear_Toe1_03]
105 500.129700 0.165701 0.000119 -0.000105 51.882504 0.007294 500.129761
106 500.129700 0.165701 0.000119 -0.000105 51.882648 0.007294 500.129761
107 500.129700 0.165701 0.000119 -0.000105 51.882805 0.007294 500.129761
[Rear_Toe2_02]
105 340.494507 0.000238 -0.000954 0.001192 -69.854523 0.001192 340.494507
106 340.494507 0.000238 -0.000954 0.001192 -69.854523 0.001192 340.494507
107 340.494507 0.000238 -0.000954 0.001192 -69.854523 0.001192 340.494507
[Rear_Toe2_03]
105 433.103577 0.000000 0.000238 0.006694 69.804291 0.006694 433.103546
106 433.103577 0.000000 0.000238 0.006694 69.804291 0.006694 433.103546
107 433.103577 0.000000 0.000238 0.006694 69.804291 0.006694 433.103546
[Rear_Toe3_02]
105 340.494141 -0.000358 -0.000477 0.008285 -67.268761 -0.009458 340.494171
106 340.494141 -0.000358 -0.000477 0.008285 -67.268761 -0.009458 340.494171
107 340.494141 -0.000358 -0.000477 0.008285 -67.268761 -0.009458 340.494171
[Rear_Toe3_03]
105 433.103577 0.001431 -0.000238 -0.000971 65.951851 -0.004546 433.103546
106 433.103577 0.001431 -0.000238 -0.000971 65.951904 -0.004546 433.103546
107 433.103577 0.001431 -0.000238 -0.000971 65.951950 -0.004546 433.103546
[Back_Bone]
105 1312.175781 -701.934692 0.000954 0.000023 -0.000007 -85.606667 1488.125488
106 1312.175781 -701.934692 0.000954 0.000023 -0.000007 -85.606667 1488.125488
107 1312.175781 -701.934692 0.000954 0.000023 -0.000007 -85.606667 1488.125488
[Head]
105 1406.159424 809.709290 0.001431 0.000625 -1.475623 7.768026 1622.625488
106 1406.159424 809.709290 0.001431 0.000625 -1.475623 7.768025 1622.625488
107 1406.159424 809.709290 0.001431 0.000625 -1.475623 7.768026 1622.625488
[Motor_Bone]
105 1158.364380 -417.834747 0.000477 -0.109650 0.069028 -105.915703 1231.419434
106 1158.364380 -417.834747 0.000477 -0.109056 0.069322 -105.915710 1231.419434
107 1158.364380 -417.834747 0.000477 -0.108462 0.069617 -105.915703 1231.419434
[Ping_Mechanism]
105 1233.748779 -441.772186 -0.239703 0.000103 -0.000053 82.120995 1310.457397
106 1233.748779 -441.772034 -0.243004 0.000103 -0.000053 82.120995 1310.457397
107 1233.748779 -441.771881 -0.246304 0.000103 -0.000053 82.120995 1310.457397
[BN_LookIK]
105 193.241119 1380.371704 -0.002861 0.000000 89.965736 -31.038179 1393.832153
106 193.241119 1380.371704 -0.002861 0.000000 89.965736 -31.038179 1393.832153
107 193.241119 1380.371704 -0.002861 0.000000 89.965736 -31.038179 1393.832153
[bottomMouth]
105 -435.092926 615.759399 -0.000954 -0.000022 0.000016 73.527184 753.966492
106 -435.092926 615.759399 -0.000954 -0.000022 0.000016 73.527184 753.966492
107 -435.092926 615.759399 -0.000954 -0.000022 0.000016 73.527184 753.966492
[L_Mouth01]
105 554.440979 7.658243 838.222046 150.204178 23.759130 109.605339 1005.027161
106 554.440979 7.658243 838.222046 150.204178 23.759130 109.605339 1005.027161
107 554.440979 7.658243 838.222046 150.204178 23.759130 109.605339 1005.027161
[L_mouthFront]
105 551.629089 934.514771 339.150421 0.000081 2.804060 79.119301 1136.941284
106 551.629089 934.514771 339.150421 0.000081 2.804060 79.119301 1136.941284
107 551.629089 934.514771 339.150421 0.000081 2.804060 79.119301 1136.941284
[mouthGun]
105 55.332661 1627.420898 0.000000 0.000023 0.000009 -11.038128 1628.361328
106 55.332661 1627.420898 0.000000 0.000023 0.000009 -11.038128 1628.361328
107 55.332661 1627.420898 0.000000 0.000023 0.000009 -11.038128 1628.361328
[R_Mouth01]
105 554.442383 7.659197 -838.223938 29.795891 -23.759109 109.605331 1005.029541
106 554.442383 7.659197 -838.223938 29.795891 -23.759109 109.605331 1005.029541
107 554.442383 7.659197 -838.223938 29.795891 -23.759109 109.605331 1005.029541
[R_mouthFront]
105 551.629089 934.514282 -339.151367 0.000029 -2.803930 79.119133 1136.941162
106 551.629089 934.514282 -339.151367 0.000029 -2.803930 79.119133 1136.941162
107 551.629089 934.514282 -339.151367 0.000029 -2.803930 79.119133 1136.941162
[TopMouth]
105 461.269867 -56.106091 -0.008583 -0.000059 -0.000268 92.025169 464.669525
106 461.269867 -56.106091 -0.008583 -0.000059 -0.000268 92.025169 464.669525
107 461.269867 -56.106091 -0.008583 -0.000059 -0.000268 92.025169 464.669525
[weapon_bone]
105 -987.239868 1448.372803 0.001431 0.000000 89.965736 -31.038221 1752.833740
106 -987.239868 1448.372803 0.001431 0.000000 89.965736 -31.038221 1752.833740
107 -987.239868 1448.372803 0.001431 0.000000 89.965736 -31.038221 1752.833740
